<svg width="974" height="831" viewBox="0 0 974 831" fill="none" xmlns="http://www.w3.org/2000/svg">
<path d="M794.365 171.998C891.353 263.502 967.059 394.275 939.53 488.123C911.992 581.866 781.209 638.579 670.759 689.533C560.408 740.478 470.478 785.549 365.32 773.4C260.262 761.24 139.977 691.861 105.584 590.052C71.3007 488.339 122.811 354.207 196.372 246.496C270.042 138.881 365.664 57.6967 472.544 43.0688C579.337 28.5562 697.487 80.5901 794.365 171.998Z" fill="#BDD5EA"/>
<g filter="url(#filter0_d_901_270)">
<path d="M141.035 183.362C141.035 183.362 172.298 160.412 192.739 152.249C213.181 144.086 271.992 162.843 304.96 175.437C337.929 188.031 337.863 202.91 356.664 213.007C380.166 225.629 497.317 202.559 522.058 183.362C546.799 164.165 553.243 115.833 573.762 102.318C594.281 88.802 663.542 131.824 667.476 128.734C674.553 123.174 741.197 83.4121 755.02 85.0332C768.842 86.6542 825.231 152.249 825.231 152.249C825.231 152.249 874.211 205.44 876.642 244.12C879.074 282.801 864.484 345.678 864.484 345.678C864.484 345.678 853.137 420.59 842.27 442.539C831.404 464.488 746.878 501.83 731.518 531.475C716.158 561.121 670.217 630.978 679.814 673.245C689.411 715.511 702.631 728.521 703.316 741.928C704 755.336 690.86 805.445 679.814 810.611C668.768 815.777 533.221 782.893 522.058 774.802C510.895 766.711 510.285 723.725 522.058 715.511C533.831 707.298 573.762 715.511 573.762 715.511C571.706 698.292 560.719 665.731 533.221 673.245C500.467 682.195 462.623 626.656 468.052 626.222C453.79 619.843 356.722 573.578 347.264 571.981C336.621 570.183 279.286 565.673 262.951 561.121C246.616 556.568 216.876 537.305 206.546 531.475C196.217 525.645 117.992 445.716 111.364 442.539C104.736 439.362 74.2236 423.832 70.8235 415.829C67.4234 407.826 79.0867 365.474 86.3934 364.463C93.7002 363.452 146.36 383.306 150.436 378.552C154.512 373.798 143.929 350.074 141.035 345.678C138.142 341.281 103.402 350.074 99.0257 345.678C94.649 341.281 99.0257 289.285 99.0257 276.994C99.0257 264.704 86.3934 260.917 70.8235 258.209C55.2535 255.502 33.6992 276.994 22.351 276.994C11.0027 276.994 14.2285 232.466 22.351 223.868C30.4735 215.269 95.7854 216.348 99.0257 213.007L141.035 183.362Z" fill="#DBCB93"/>
<path d="M141.792 157.377C141.792 157.377 173.054 134.427 193.496 126.264C213.937 118.101 272.749 136.858 305.717 149.452C338.685 162.046 338.62 176.925 357.421 187.022C380.923 199.644 498.074 176.574 522.815 157.377C547.556 138.18 554 89.8481 574.519 76.3325C595.038 62.817 664.299 105.839 668.232 102.749C675.31 97.1892 741.954 57.4272 755.777 59.0482C769.599 60.6693 825.988 126.264 825.988 126.264C825.988 126.264 874.967 179.455 877.399 218.135C879.831 256.816 865.241 319.693 865.241 319.693C865.241 319.693 853.893 394.605 843.027 416.554C832.161 438.503 747.635 475.845 732.275 505.49C716.915 535.136 670.974 604.993 680.571 647.26C690.168 689.526 703.388 702.536 704.073 715.943C704.757 729.351 691.617 779.461 680.571 784.626C669.525 789.792 533.978 756.908 522.815 748.817C511.652 740.726 511.042 697.74 522.815 689.526C534.588 681.313 574.519 689.526 574.519 689.526C572.462 672.307 561.475 639.746 533.978 647.26C501.224 656.21 463.379 600.671 468.809 600.237C454.547 593.858 357.479 547.593 348.02 545.996C337.377 544.198 280.043 539.688 263.708 535.136C247.373 530.583 217.632 511.32 207.303 505.49C196.974 499.66 118.749 419.731 112.121 416.554C105.493 413.377 74.9804 397.847 71.5803 389.844C68.1803 381.841 79.8435 339.489 87.1503 338.478C94.457 337.467 147.117 357.321 151.193 352.567C155.268 347.813 144.685 324.089 141.792 319.693C138.899 315.297 104.159 324.089 99.7825 319.693C95.4058 315.297 99.7825 263.3 99.7825 251.009C99.7825 238.719 87.1503 234.932 71.5803 232.224C56.0104 229.517 34.4561 251.009 23.1078 251.009C11.7596 251.009 14.9853 206.481 23.1078 197.883C31.2303 189.284 96.5422 190.363 99.7825 187.022L141.792 157.377Z" fill="#67B14D"/>
<path d="M348.04 542.356C348.04 542.356 358.663 498.303 355.421 496.682C352.178 495.061 332.726 503.166 330.294 502.356C327.863 501.545 327.052 477.23 330.294 472.367C333.537 467.503 343.263 465.072 346.505 465.072C349.747 465.072 361.904 472.367 365.147 472.367C368.39 472.367 382.167 466.693 385.41 465.072C388.653 463.451 385.41 434.272 385.41 429.409C385.41 424.546 391.894 423.735 395.947 422.114C400 420.493 395.947 399.42 395.947 396.177C395.947 392.935 404.053 345.115 408.105 341.872C412.157 338.63 459.167 324.851 464.841 323.23C470.515 321.609 468.894 287.567 472.947 285.136C476.999 282.704 491.588 272.167 498.883 268.115C506.178 264.062 489.157 227.589 498.883 223.536C508.609 219.483 527.252 221.105 531.304 217.862C535.356 214.62 571.831 180.578 579.936 179.768C588.04 178.957 601.01 204.894 605.062 204.894C609.114 204.894 611.546 188.684 617.22 188.684C622.893 188.684 656.936 200.841 660.988 204.894C665.04 208.947 673.146 229.21 673.146 234.883C673.146 240.557 648.019 272.167 649.64 279.462C651.262 286.757 655.314 292.431 660.988 294.862C666.662 297.294 667.472 297.294 673.146 294.862C678.82 292.431 681.251 272.167 685.303 268.115C689.356 264.062 703.135 255.957 707.188 258.389C711.241 260.82 703.945 275.41 707.188 279.462C710.43 283.515 720.156 292.431 726.64 294.862C733.125 297.294 763.113 309.452 768.787 309.452C774.461 309.452 783.377 309.452 789.861 309.452C796.345 309.452 809.313 330.525 813.366 332.957C817.419 335.388 860.801 323.251 860.801 323.251" stroke="#55943F" stroke-width="4" stroke-linecap="round"/>
<path d="M347.131 184.151C347.131 184.151 338.398 190.305 337.588 193.547C336.777 196.789 344.882 201.652 343.261 204.894C341.641 208.136 315.703 229.21 313.272 234.073C310.841 238.936 318.135 264.873 316.514 268.925C314.893 272.978 298.682 280.273 298.682 280.273M298.682 280.273C303.546 282.704 313.272 287.567 313.272 289.999C313.272 292.431 287.335 315.936 286.525 321.609C285.714 327.283 288.956 334.578 295.44 336.199C301.925 337.82 343.505 336.199 357.04 336.199C370.575 336.199 400.771 362.344 400.771 362.344M298.682 280.273C298.682 280.273 277.609 278.652 275.177 280.273C272.746 281.894 279.23 305.399 275.177 307.83C271.124 310.262 174.997 295.835 176.294 280.273C177.59 264.711 181.157 246.231 176.294 242.178C171.43 238.125 159.273 227.589 154.41 228.399C149.547 229.21 156.841 243.799 154.41 246.231C151.978 248.662 103.479 256.883 103.479 256.883M564.534 189.494C564.534 186.9 557.24 172.473 552.376 166.799C547.513 161.126 533.506 152.33 533.506 152.33M660.787 203.243C660.787 203.243 694.218 162.747 696.649 151.4C699.081 140.052 680.439 128.705 678.818 119.789C677.197 110.873 687.153 95.054 687.153 95.054M785.807 309.451C785.807 309.451 780.944 294.052 781.754 286.757C782.565 279.462 792.291 272.167 793.102 264.062C793.912 255.957 791.481 233.262 789.86 226.778C788.239 220.294 774.46 216.241 772.028 212.999C769.597 209.757 765.544 170.852 767.975 162.747C770.407 154.642 792.291 146.536 793.102 137.621C793.912 128.705 786.25 88.6899 786.25 88.6899" stroke="#55943F" stroke-width="4" stroke-linecap="round"/>
<path d="M686.113 429.409C686.113 424.619 685.17 419.876 683.337 415.451C681.504 411.026 678.817 407.005 675.43 403.618C672.043 400.231 668.023 397.545 663.597 395.712C659.172 393.879 654.429 392.935 649.64 392.935C644.85 392.935 640.107 393.879 635.682 395.712C631.257 397.545 627.236 400.231 623.849 403.618C620.462 407.005 617.775 411.026 615.942 415.451C614.109 419.876 613.166 424.619 613.166 429.409L649.64 429.409H686.113Z" fill="#55943F"/>
<path d="M752.575 328.904C752.575 324.114 751.632 319.371 749.799 314.946C747.966 310.521 745.279 306.5 741.892 303.113C738.505 299.727 734.484 297.04 730.059 295.207C725.634 293.374 720.891 292.431 716.101 292.431C711.312 292.431 706.569 293.374 702.144 295.207C697.718 297.04 693.698 299.727 690.311 303.113C686.924 306.5 684.237 310.521 682.404 314.946C680.571 319.371 679.628 324.114 679.628 328.904L716.101 328.904H752.575Z" fill="#55943F"/>
<path d="M710.429 443.998C710.429 439.209 709.485 434.466 707.652 430.04C705.819 425.615 703.133 421.595 699.746 418.208C696.359 414.821 692.338 412.134 687.913 410.301C683.488 408.468 678.745 407.525 673.955 407.525C669.165 407.525 664.422 408.468 659.997 410.301C655.572 412.134 651.551 414.821 648.164 418.208C644.777 421.595 642.091 425.615 640.258 430.04C638.425 434.466 637.481 439.209 637.481 443.998L673.955 443.998H710.429Z" fill="#55943F"/>
<path d="M723.397 337.009C723.397 332.22 722.454 327.477 720.621 323.051C718.788 318.626 716.101 314.605 712.714 311.219C709.328 307.832 705.307 305.145 700.882 303.312C696.456 301.479 691.713 300.536 686.924 300.536C682.134 300.536 677.391 301.479 672.966 303.312C668.541 305.145 664.52 307.832 661.133 311.219C657.746 314.605 655.06 318.626 653.227 323.051C651.394 327.477 650.45 332.22 650.45 337.009L686.924 337.009H723.397Z" fill="#55943F"/>
<path d="M624.512 575.303C624.512 570.513 623.569 565.77 621.736 561.345C619.903 556.92 617.217 552.899 613.83 549.512C610.443 546.125 606.422 543.439 601.997 541.606C597.572 539.773 592.829 538.829 588.039 538.829C583.249 538.829 578.506 539.773 574.081 541.606C569.656 543.439 565.635 546.125 562.248 549.512C558.861 552.899 556.175 556.92 554.342 561.345C552.509 565.77 551.565 570.513 551.565 575.303L588.039 575.303H624.512Z" fill="#55943F"/>
<path d="M446.198 299.725C446.198 294.935 445.255 290.193 443.422 285.767C441.589 281.342 438.902 277.321 435.515 273.935C432.128 270.548 428.107 267.861 423.682 266.028C419.257 264.195 414.514 263.252 409.725 263.252C404.935 263.252 400.192 264.195 395.767 266.028C391.342 267.861 387.321 270.548 383.934 273.935C380.547 277.321 377.86 281.342 376.027 285.767C374.194 290.193 373.251 294.935 373.251 299.725L409.725 299.725H446.198Z" fill="#55943F"/>
<path d="M243.568 382.399C243.568 377.609 242.625 372.866 240.792 368.441C238.959 364.016 236.272 359.995 232.885 356.608C229.498 353.221 225.478 350.534 221.052 348.701C216.627 346.868 211.884 345.925 207.095 345.925C202.305 345.925 197.562 346.868 193.137 348.701C188.712 350.534 184.691 353.221 181.304 356.608C177.917 359.995 175.23 364.016 173.397 368.441C171.565 372.866 170.621 377.609 170.621 382.399L207.095 382.399H243.568Z" fill="#55943F"/>
<path d="M280.851 400.23C280.851 395.44 279.908 390.697 278.075 386.272C276.242 381.847 273.555 377.826 270.169 374.439C266.782 371.053 262.761 368.366 258.336 366.533C253.91 364.7 249.168 363.757 244.378 363.757C239.588 363.757 234.845 364.7 230.42 366.533C225.995 368.366 221.974 371.053 218.587 374.439C215.2 377.826 212.514 381.847 210.681 386.272C208.848 390.697 207.904 395.44 207.904 400.23L244.378 400.23H280.851Z" fill="#55943F"/>
</g>
<rect width="74.5681" height="30.7999" rx="15.3999" transform="matrix(1 0 0 -1 802.831 242.178)" fill="white"/>
<rect width="137.789" height="34.042" rx="17.021" transform="matrix(1 0 0 -1 763.926 204.894)" fill="white"/>
<rect width="37.284" height="27.5578" rx="13.7789" transform="matrix(-4.66706e-08 -1 -1 4.09398e-08 867.672 227.589)" fill="white"/>
<rect x="243.568" y="187.063" width="134.727" height="53.0806" rx="26.5403" fill="white"/>
<rect x="289.138" y="246.041" width="97.0826" height="33.4211" rx="16.7106" fill="white"/>
<rect x="344.613" y="218.518" width="45.2168" height="33.6817" rx="16.8409" transform="rotate(90 344.613 218.518)" fill="white"/>
<rect width="90.7786" height="42.1472" rx="21.0736" transform="matrix(-1 0 0 1 449.439 448.051)" fill="white"/>
<rect width="64.8418" height="35.663" rx="17.8315" transform="matrix(-1 0 0 1 624.513 193.547)" fill="white"/>
<rect width="129.684" height="42.1472" rx="21.0736" transform="matrix(-1 0 0 1 763.926 490.198)" fill="white"/>
<defs>
<filter id="filter0_d_901_270" x="0" y="48" width="892.672" height="782.159" filterUnits="userSpaceOnUse" color-interpolation-filters="sRGB">
<feFlood flood-opacity="0" result="BackgroundImageFix"/>
<feColorMatrix in="SourceAlpha" type="matrix" values="0 0 0 0 0 0 0 0 0 0 0 0 0 0 0 0 0 0 127 0" result="hardAlpha"/>
<feOffset dy="4"/>
<feGaussianBlur stdDeviation="7.5"/>
<feComposite in2="hardAlpha" operator="out"/>
<feColorMatrix type="matrix" values="0 0 0 0 0 0 0 0 0 0 0 0 0 0 0 0 0 0 0.1 0"/>
<feBlend mode="normal" in2="BackgroundImageFix" result="effect1_dropShadow_901_270"/>
<feBlend mode="normal" in="SourceGraphic" in2="effect1_dropShadow_901_270" result="shape"/>
</filter>
</defs>
</svg>
