<?xml version="1.0" encoding="utf-8"?>
<svg viewBox="0 377.849 960.185 109.151" xmlns="http://www.w3.org/2000/svg">
  <path d="M 0 378 C 3.218 381.218 47.145 382.626 46.519 382 C 69.78 382.113 106.266 374.145 160 380 C 213.734 385.855 266.7 410.376 320 414.876 C 373.3 419.376 423.241 396.218 476.541 395.918 C 529.841 395.518 591.023 415.482 644.323 412.582 C 697.623 409.782 733.411 388.223 786.711 383.223 C 840.011 378.223 868.534 398.003 900.458 395.771 C 928.845 393.786 963 383.879 960 382 L 960 487 L 933.3 487 C 906.7 487 853.3 487 800 487 C 746.7 487 693.3 487 640 487 C 586.7 487 533.3 487 480 487 C 426.7 487 373.3 487 320 487 C 266.7 487 213.3 487 160 487 C 106.7 487 53.3 487 26.7 487 L 0 487 L 0 378 Z" style="fill: rgb(229, 226, 251);" transform="matrix(-1, 0, 0, -1, 960.184651, 864.849383)"/>
</svg>