<?xml version="1.0" encoding="utf-8"?>
<svg viewBox="0 431.849 960.185 109.151" xmlns="http://www.w3.org/2000/svg">
  <path d="M 0 432 C 3.218 435.218 47.145 436.626 46.519 436 C 69.78 436.113 106.266 428.145 160 434 C 213.734 439.855 266.7 464.376 320 468.876 C 373.3 473.376 423.241 450.218 476.541 449.918 C 529.841 449.518 591.023 469.482 644.323 466.582 C 697.623 463.782 733.411 442.223 786.711 437.223 C 840.011 432.223 868.534 452.003 900.458 449.771 C 928.845 447.786 963 437.879 960 436 L 960 541 L 933.3 541 C 906.7 541 853.3 541 800 541 C 746.7 541 693.3 541 640 541 C 586.7 541 533.3 541 480 541 C 426.7 541 373.3 541 320 541 C 266.7 541 213.3 541 160 541 C 106.7 541 53.3 541 26.7 541 L 0 541 L 0 432 Z" style="fill: #BDD5EA;"/>
</svg>