<svg width="204" height="174" viewBox="0 0 204 174" fill="none" xmlns="http://www.w3.org/2000/svg">
<path d="M12.2672 74.0047C29.0184 75.9814 44.1397 75.98 44.1397 75.98L47 106C47 106 8.4398 73.553 12.2672 74.0047Z" fill="white" stroke="#343131" stroke-width="6"/>
<ellipse cx="123" cy="82" rx="81" ry="82" fill="white"/>
<path d="M97.5 145C62.5251 131.021 50 111.5 50 111.5L54.6409 123.01L73.2205 143.884L96 157L118.256 161.885L139 160L167.5 147C167.5 147 132.475 158.979 97.5 145Z" fill="#E7F0F2"/>
<path d="M152.001 75C144.903 39.5 165.5 17.5 165.5 17.5C165.5 17.5 190.5 36.5 198 65.5C205.629 95 187 126 187 126C187 126 158.501 107.513 152.001 75Z" fill="#F36161"/>
<circle cx="122" cy="82" r="79" stroke="#343131" stroke-width="6"/>
<path d="M192.689 29.5965C192.166 27.9513 194.304 23.4987 194.304 23.0174C194.304 22.8099 183 29.1856 183 29.1856L189.056 36.9987C189.056 36.9987 200.812 30.7096 199.955 30.4189C198.744 30.0077 192.819 30.0073 192.689 29.5965Z" fill="#343131" stroke="#343131" stroke-width="2"/>
<path d="M87.163 169.304C86.2265 170.319 86.2897 171.9 87.3043 172.837C88.3189 173.774 89.9005 173.71 90.837 172.696L87.163 169.304ZM101 158C99.163 156.304 99.163 156.304 99.1629 156.304C99.1629 156.304 99.1628 156.305 99.1627 156.305C99.1623 156.305 99.1622 156.305 99.1617 156.306C99.1607 156.307 99.1595 156.308 99.1577 156.31C99.1541 156.314 99.1489 156.32 99.1419 156.327C99.1279 156.342 99.1071 156.365 99.0797 156.395C99.025 156.454 98.9441 156.541 98.8396 156.655C98.6304 156.881 98.3264 157.211 97.947 157.622C97.1881 158.444 96.1275 159.593 94.9204 160.9C92.5061 163.516 89.5061 166.766 87.163 169.304L90.837 172.696C93.1802 170.157 96.1802 166.907 98.5944 164.292C99.8015 162.984 100.862 161.835 101.621 161.013C102 160.602 102.304 160.273 102.514 160.046C102.618 159.933 102.699 159.845 102.754 159.786C102.781 159.756 102.802 159.734 102.816 159.719C102.823 159.711 102.828 159.705 102.832 159.701C102.833 159.7 102.835 159.698 102.836 159.697C102.836 159.697 102.837 159.696 102.837 159.696C102.837 159.696 102.837 159.696 102.837 159.696C102.837 159.696 102.837 159.696 101 158Z" fill="#343131"/>
<path d="M47.7947 55.1182C69.0682 6.45714 106.77 3.04836 115.162 8.63056C129.999 18.5 140.702 36.84 140.702 53.92C140.702 71 133.5 84.5 109.5 96.5C82.0888 110.206 47.9545 106.264 47.9545 106.264" stroke="#343131" stroke-width="6" stroke-linecap="round"/>
<ellipse cx="174.253" cy="63.8595" rx="13.8029" ry="8.85926" transform="rotate(-24.9801 174.253 63.8595)" fill="#F88D9A"/>
<ellipse cx="174.253" cy="61.8595" rx="13.8029" ry="8.85926" transform="rotate(-24.9801 174.253 61.8595)" fill="#F88D9A"/>
<path d="M164.294 49.6174C160.271 42.0185 171.978 35.9248 176.622 43.4051" stroke="#343131" stroke-width="5" stroke-linecap="round"/>
<path d="M108.5 6.5C108.5 6.5 132.874 20.5477 137.5 43.5C141.075 61.2355 134.064 83.7053 100.5 97C78.4978 105.715 46.5 103.5 46.5 103.5" stroke="#343131" stroke-width="4"/>
<path d="M100.548 169.438C99.6852 170.517 99.8602 172.09 100.938 172.952C102.017 173.815 103.59 173.64 104.452 172.562L100.548 169.438ZM108.869 158.692C108.476 159.334 106.48 161.926 104.416 164.556C103.418 165.826 102.451 167.047 101.733 167.951C101.374 168.403 101.077 168.775 100.87 169.034C100.767 169.164 100.686 169.265 100.631 169.334C100.604 169.368 100.583 169.394 100.569 169.412C100.562 169.421 100.556 169.428 100.553 169.432C100.551 169.434 100.55 169.436 100.549 169.437C100.548 169.437 100.548 169.438 100.548 169.438C100.548 169.438 100.548 169.438 100.548 169.438C100.548 169.438 100.548 169.438 102.5 171C104.452 172.562 104.452 172.561 104.452 172.561C104.453 172.561 104.453 172.561 104.453 172.561C104.453 172.561 104.453 172.56 104.454 172.56C104.455 172.558 104.456 172.557 104.458 172.554C104.462 172.55 104.467 172.543 104.474 172.534C104.489 172.516 104.51 172.489 104.538 172.454C104.594 172.385 104.675 172.282 104.779 172.152C104.988 171.891 105.286 171.516 105.647 171.062C106.369 170.153 107.343 168.924 108.348 167.644C110.288 165.174 112.543 162.266 113.131 161.308L108.869 158.692Z" fill="#343131"/>
</svg>
